<svg width="798" height="835" viewBox="0 0 798 835" fill="none" xmlns="http://www.w3.org/2000/svg">
<g clip-path="url(#clip0_430_2)">
<path d="M308.5 834.5C478.88 834.5 617 810.1 617 780C617 749.9 478.88 725.5 308.5 725.5C138.12 725.5 0 749.9 0 780C0 810.1 138.12 834.5 308.5 834.5Z" fill="#616161"/>
<path d="M496 603C662.514 603 797.5 468.014 797.5 301.5C797.5 134.986 662.514 0 496 0C329.486 0 194.5 134.986 194.5 301.5C194.5 468.014 329.486 603 496 603Z" fill="#616161"/>
<path d="M213.85 482.998C213.85 482.998 212.095 499.679 211.217 500.556C210.339 501.434 212.095 503.19 211.217 505.824C210.339 508.458 209.461 511.969 211.217 512.847C212.973 513.725 201.56 590.983 201.56 590.983C201.56 590.983 173.466 627.855 184.879 685.798L188.391 744.619C188.391 744.619 215.606 746.375 215.606 736.718C215.606 736.718 213.85 725.305 213.85 720.037C213.85 714.77 218.24 714.77 215.606 712.136C212.973 709.502 212.973 707.746 212.973 707.746C212.973 707.746 217.362 704.235 216.484 703.357C215.606 702.479 224.386 640.146 224.386 640.146C224.386 640.146 234.043 630.489 234.043 625.222V619.954C234.043 619.954 238.432 608.541 238.432 607.663C238.432 606.785 262.136 553.232 262.136 553.232L271.793 591.861L282.329 647.17C282.329 647.17 287.596 697.211 298.131 716.526C298.131 716.526 316.568 779.736 316.568 777.98C316.568 776.224 347.295 771.835 346.417 763.934C345.539 756.032 327.981 645.414 327.981 645.414L332.37 481.242L213.85 482.998Z" fill="#181A20"/>
<path d="M190.147 740.23C190.147 740.23 166.443 786.76 182.246 788.516C198.048 790.272 204.194 790.272 211.217 783.249C215.057 779.409 222.832 774.257 229.093 770.376C232.802 768.113 235.799 764.851 237.739 760.963C239.679 757.075 240.484 752.719 240.062 748.394C239.599 744.099 237.994 740.56 234.043 740.23C223.508 739.352 211.217 729.695 211.217 729.695L190.147 740.23Z" fill="#181A20"/>
<path d="M320.957 774.469C320.957 774.469 297.254 820.999 313.056 822.755C328.859 824.51 335.004 824.51 342.028 817.487C345.867 813.647 353.643 808.496 359.903 804.614C363.613 802.351 366.609 799.089 368.549 795.201C370.489 791.313 371.295 786.957 370.872 782.632C370.409 778.337 368.804 774.798 364.854 774.469C354.319 773.591 342.028 763.934 342.028 763.934L320.957 774.469Z" fill="#181A20"/>
<path d="M295.905 252.337C316.286 252.337 332.809 235.814 332.809 215.432C332.809 195.05 316.286 178.527 295.905 178.527C275.523 178.527 259 195.05 259 215.432C259 235.814 275.523 252.337 295.905 252.337Z" fill="#FFB8B8"/>
<path d="M272.18 227.559C272.18 227.559 245.82 276.062 243.711 276.062C241.602 276.062 291.16 291.878 291.16 291.878C291.16 291.878 304.867 245.484 306.976 241.266L272.18 227.559Z" fill="#FFB8B8"/>
<path d="M312.617 280.637C312.617 280.637 259.941 251.665 254.674 252.543C249.406 253.421 193.219 302.585 194.097 322.777C194.975 342.969 201.998 376.33 201.998 376.33C201.998 376.33 204.632 469.39 209.9 470.268C215.167 471.146 209.022 486.949 210.778 486.949C212.533 486.949 333.687 486.949 334.565 484.315C335.443 481.681 312.617 280.637 312.617 280.637Z" fill="#06C149"/>
<path d="M342.027 489.141C342.027 489.141 358.708 540.06 344.661 538.304C330.614 536.549 324.469 494.408 324.469 494.408L342.027 489.141Z" fill="#FFB8B8"/>
<path d="M297.253 277.562C297.253 277.562 264.77 284.586 270.038 328.482C275.305 372.378 284.962 416.274 284.962 416.274L317.446 487.386L320.957 500.555L344.661 494.41L327.103 392.57C327.103 392.57 320.957 283.708 313.056 280.196C308.073 278.072 302.656 277.169 297.253 277.562Z" fill="#06C149"/>
<path opacity="0.1" d="M277.5 414.958L317.885 486.947L283.86 411.09L277.5 414.958Z" fill="black"/>
<path d="M332.646 204.565L332.768 201.745L338.378 203.141C338.318 202.236 338.062 201.354 337.628 200.557C337.194 199.761 336.593 199.067 335.865 198.526L341.84 198.192C336.826 191.066 330.419 185.031 323.007 180.45C315.595 175.869 307.332 172.838 298.716 171.54C285.79 169.667 271.398 172.378 262.534 181.971C258.235 186.624 255.533 192.541 253.612 198.578C250.072 209.696 249.351 222.95 256.731 231.987C264.232 241.172 277.333 242.971 289.137 244.108C293.29 244.508 297.643 244.88 301.492 243.269C301.92 238.854 301.355 234.4 299.838 230.232C299.206 228.942 298.904 227.515 298.959 226.08C299.484 222.568 304.168 221.683 307.687 222.158C311.205 222.632 315.436 223.358 317.749 220.663C319.341 218.807 319.247 216.104 319.458 213.668C320.033 207.034 332.586 205.955 332.646 204.565Z" fill="#181A20"/>
<path d="M559 787.5C582.748 787.5 602 768.248 602 744.5C602 720.752 582.748 701.5 559 701.5C535.252 701.5 516 720.752 516 744.5C516 768.248 535.252 787.5 559 787.5Z" fill="#06C149"/>
<path d="M54 772.5C77.7482 772.5 97 753.248 97 729.5C97 705.752 77.7482 686.5 54 686.5C30.2518 686.5 11 705.752 11 729.5C11 753.248 30.2518 772.5 54 772.5Z" fill="#06C149"/>
<path d="M54 703.5C71.1208 703.5 85 689.621 85 672.5C85 655.379 71.1208 641.5 54 641.5C36.8792 641.5 23 655.379 23 672.5C23 689.621 36.8792 703.5 54 703.5Z" fill="#06C149"/>
<path d="M54 646.5C66.1503 646.5 76 636.65 76 624.5C76 612.35 66.1503 602.5 54 602.5C41.8497 602.5 32 612.35 32 624.5C32 636.65 41.8497 646.5 54 646.5Z" fill="#06C149"/>
</g>
<defs>
<clipPath id="clip0_430_2">
<rect width="797.5" height="834.5" fill="white"/>
</clipPath>
</defs>
</svg>
